<?xml version="1.0" encoding="UTF-8"?>
<svg version="1.1" xmlns="http://www.w3.org/2000/svg" width="500" height="500">
<path fill="#1a60e4" d="M0 0 C7.16946437 6.02332551 11.35242637 14.68680854 12.30334473 23.95730591 C12.38693237 25.10850922 12.47052002 26.25971252 12.55664062 27.44580078 C12.65344116 28.75461212 12.7502417 30.06342346 12.84997559 31.41189575 C12.95209977 32.83969899 13.05419039 34.26750464 13.15625 35.6953125 C13.26418355 37.16782099 13.37246539 38.64030398 13.4810791 40.11276245 C13.76644299 43.99176989 14.0478444 47.87105398 14.32818604 51.75042725 C14.77585661 57.93750488 15.2291246 64.12417328 15.68315125 70.3107872 C15.8401504 72.45856925 15.99522695 74.60648334 16.15002441 76.75442505 C16.55689432 82.35556744 16.97291583 87.9509729 17.55517578 93.53710938 C18.20895239 99.81214358 18.30319961 106.06962002 18.375 112.375 C18.41238281 113.6125 18.44976562 114.85 18.48828125 116.125 C18.60733765 128.69206471 14.71517807 138.86634782 6 148 C-2.70132583 156.0916788 -13.2001048 159.9504958 -24.92993164 160.32543945 C-25.60698654 160.34842102 -26.28404144 160.37140259 -26.98161316 160.39508057 C-28.444391 160.44464361 -29.90722467 160.49258046 -31.37010384 160.53905678 C-34.48212903 160.63992278 -37.59356104 160.75535059 -40.70510769 160.8698988 C-46.49158712 161.08274965 -52.27812892 161.28959824 -58.06567383 161.47143555 C-62.09864708 161.59870564 -66.13057207 161.74462002 -70.16244316 161.90288353 C-71.6967834 161.95960088 -73.23139657 162.00937944 -74.76619148 162.05205727 C-76.91168014 162.1125088 -79.05502469 162.19670489 -81.19946289 162.28637695 C-82.4190419 162.32777298 -83.63862091 162.36916901 -84.89515686 162.41181946 C-88.03622359 162.79628213 -88.03622359 162.79628213 -90.40161133 164.61128235 C-92.58046845 167.86748314 -92.44983793 170.03000506 -92.37475586 173.93310547 C-92.3673085 174.62321213 -92.35986115 175.31331879 -92.35218811 176.02433777 C-92.33364472 177.52113011 -92.30592886 179.01783072 -92.27009392 180.51430893 C-92.21416341 182.89616032 -92.18449745 185.27706881 -92.16175842 187.65945435 C-92.10041027 193.58409684 -92.00027477 199.50790929 -91.88983154 205.43182373 C-91.79690405 210.42724615 -91.72479225 215.42207787 -91.68136787 220.41818619 C-91.6531084 222.74181415 -91.59511713 225.06342687 -91.53611755 227.38644409 C-91.3377835 240.54149638 -94.11145076 251.83841046 -103 262 C-103.61488281 262.82242187 -104.22976563 263.64484375 -104.86328125 264.4921875 C-107.10576837 267.12413765 -109.20515973 268.72802309 -112.125 270.5625 C-112.99382812 271.12066406 -113.86265625 271.67882812 -114.7578125 272.25390625 C-122.85039072 276.61219838 -129.64084644 278.5964279 -138.84301758 278.53344727 C-139.87698166 278.54206284 -140.91094574 278.55067841 -141.97624207 278.55955505 C-145.36593263 278.58210205 -148.75478864 278.57549536 -152.14453125 278.56640625 C-154.52048485 278.5716476 -156.89643637 278.57792595 -159.27238464 278.58518982 C-164.2426434 278.59557396 -169.21261552 278.59106207 -174.18286133 278.57641602 C-180.52426382 278.55925101 -186.86475825 278.58270703 -193.20605946 278.61790562 C-198.11087447 278.63996345 -203.01547513 278.63841747 -207.92032433 278.6301403 C-210.25689374 278.62932501 -212.59347956 278.6361069 -214.93000221 278.65091133 C-231.86759222 278.7417728 -245.68580432 277.72104406 -259 266 C-269.66269184 254.85684025 -273.36371605 242.65084691 -273.23046875 227.4609375 C-273.23050903 226.58523605 -273.23054932 225.70953461 -273.23059082 224.80729675 C-273.22723195 221.99637084 -273.20843734 219.18584585 -273.1875 216.375 C-273.17862663 214.42830478 -273.16991981 212.4816088 -273.16137695 210.53491211 C-273.04809329 190.12427729 -272.65231994 170.13376369 -269 150 C-268.85159668 149.15421387 -268.70319336 148.30842773 -268.55029297 147.43701172 C-263.26543624 117.62772968 -251.55935464 89.97580986 -226 72 C-212.94384223 63.24433022 -199.1915458 57.10448045 -184.1875 52.5 C-183.3210083 52.23227783 -182.4545166 51.96455566 -181.56176758 51.6887207 C-180.75118896 51.45113037 -179.94061035 51.21354004 -179.10546875 50.96875 C-178.38512451 50.75669922 -177.66478027 50.54464844 -176.92260742 50.32617188 C-175 50 -175 50 -172 51 C-173.13695312 51.60585937 -174.27390625 52.21171875 -175.4453125 52.8359375 C-190.51409922 60.96717943 -203.79327818 69.96281598 -216 82 C-216.886875 82.87398438 -217.77375 83.74796875 -218.6875 84.6484375 C-226.90998201 93.19681056 -233.52366487 103.09465948 -236.4296875 114.71875 C-237 117 -237 117 -237.96875 119.76171875 C-246.2513252 145.77025982 -242.15467302 176.22266882 -240.625 203 C-240.5620575 204.1247171 -240.49911499 205.2494342 -240.43426514 206.40823364 C-240.24938732 209.64779855 -240.05280398 212.8864143 -239.8515625 216.125 C-239.79623352 217.08941513 -239.74090454 218.05383026 -239.68389893 219.04747009 C-239.09116756 229.1990122 -239.09116756 229.1990122 -235.4921875 238.54296875 C-231.50759058 240.8725215 -227.64967661 240.45568597 -223.125 240.3125 C-221.85462891 240.29799805 -221.85462891 240.29799805 -220.55859375 240.28320312 C-215.79742314 240.20509548 -211.04405774 240.00680702 -206.28857422 239.76855469 C-196.06277509 239.25948872 -185.85564774 238.90756595 -175.6171875 238.7890625 C-174.49063751 238.77475693 -173.36408752 238.76045135 -172.20339966 238.74571228 C-167.57231827 238.68814604 -162.9413786 238.6328872 -158.31005859 238.59863281 C-154.87047091 238.57118048 -151.43152835 238.52543643 -147.9921875 238.4765625 C-146.42052322 238.4716832 -146.42052322 238.4716832 -144.81710815 238.46670532 C-143.84734039 238.45013885 -142.87757263 238.43357239 -141.87841797 238.41650391 C-140.60561478 238.40437363 -140.60561478 238.40437363 -139.30709839 238.39199829 C-136.33761202 237.88745389 -135.03926747 237.23366034 -133 235 C-132.40624388 231.92722031 -132.40624388 231.92722031 -132.51757812 228.34814453 C-132.51170937 227.34005486 -132.51170937 227.34005486 -132.50572205 226.31159973 C-132.49974443 224.85149193 -132.50292194 223.39132462 -132.5141449 221.93124771 C-132.53143254 219.60828484 -132.52388189 217.28656441 -132.5098877 214.96359253 C-132.48024931 209.18588749 -132.49333145 203.40841824 -132.50506592 197.63067627 C-132.51333486 192.76074885 -132.50503967 187.8913627 -132.47593689 183.02151108 C-132.46893227 180.75430687 -132.4854164 178.48810304 -132.50305176 176.22097778 C-132.50095907 160.18657554 -128.10780024 148.41415523 -117.125 136.6875 C-107.10388624 127.14724583 -94.94279965 124.46714406 -81.4375 124.75 C-80.34268311 124.76095703 -79.24786621 124.77191406 -78.11987305 124.78320312 C-66.41964129 124.93259197 -54.71954612 125.31009073 -43.02558899 125.71502686 C-41.01020555 125.78053735 -38.99482641 125.83284629 -36.97900391 125.8828125 C-34.27305926 125.96250654 -31.5919286 126.07913961 -28.89208984 126.2421875 C-27.58062988 126.29632813 -26.26916992 126.35046875 -24.91796875 126.40625 C-23.17229614 126.50389648 -23.17229614 126.50389648 -21.39135742 126.60351562 C-17.40466418 125.89405585 -15.28229598 124.82550881 -12.36613464 122.04977417 C-9.56575183 117.84802701 -10.13163788 113.02570861 -10.22265625 108.14453125 C-10.20084977 105.70517206 -10.17207005 103.26586768 -10.13720703 100.82666016 C-10.12361145 99.5469635 -10.11001587 98.26726685 -10.0960083 96.9487915 C-9.9344475 90.30384606 -9.37226589 83.69429192 -8.80859375 77.07421875 C-8.69654717 75.71846455 -8.58486417 74.36268026 -8.47354126 73.00686646 C-8.13451526 68.89986947 -7.78663999 64.79364773 -7.4375 60.6875 C-7.08351179 56.51951943 -6.73130369 52.35142328 -6.38771057 48.18257141 C-6.17605865 45.62091494 -5.95945491 43.0596602 -5.73667908 40.49894714 C-3.56677313 24.14121155 -3.56677313 24.14121155 -8 9 C-13.7531673 3.65777322 -19.35561674 0.99594301 -27.17578125 0.1484375 C-28.33271484 0.01953125 -29.48964844 -0.109375 -30.68164062 -0.2421875 C-31.87982422 -0.36851562 -33.07800781 -0.49484375 -34.3125 -0.625 C-36.1387793 -0.82609375 -36.1387793 -0.82609375 -38.00195312 -1.03125 C-41.00066941 -1.36052081 -43.99994466 -1.68320228 -47 -2 C-47 -2.66 -47 -3.32 -47 -4 C-14.33340693 -9.47157292 -14.33340693 -9.47157292 0 0 Z " transform="translate(440,177)"/>
<path fill="#1a60e4" d="M0 0 C1.4446695 0.08262035 2.88934641 0.16511133 4.33403015 0.2474823 C7.3469652 0.42035039 10.35968969 0.59646832 13.37231445 0.7746582 C16.40360903 0.95355878 19.43512984 1.12704135 22.46704102 1.29516602 C37.27594067 2.11720708 52.06448088 2.98912515 66.8046875 4.6796875 C67.7965657 4.78908157 68.78844391 4.89847565 69.81037903 5.01118469 C82.33887148 6.5660068 91.06860397 11.77227871 99.34765625 21.26171875 C104.0473473 28.43942872 104.06863066 34.62204097 103.94921875 43.04296875 C103.95405273 44.7300293 103.95405273 44.7300293 103.95898438 46.45117188 C103.92102992 52.38931947 103.48406333 57.88529118 102.17358398 63.67358398 C101.12207406 68.68152553 100.61635756 73.77773666 100.01171875 78.85546875 C99.87765625 79.95503906 99.74359375 81.05460937 99.60546875 82.1875 C99.2791354 84.86809533 98.95628481 87.54905973 98.63671875 90.23046875 C96.31668186 86.75041342 95.94626929 83.77755522 95.41796875 79.73828125 C95.31456177 78.99649628 95.21115479 78.2547113 95.10461426 77.490448 C94.77471417 75.11305646 94.45541833 72.73438513 94.13671875 70.35546875 C93.92260622 68.79286838 93.70776968 67.23036704 93.4921875 65.66796875 C93.38669586 64.90284973 93.28120422 64.13773071 93.17251587 63.34942627 C93.06789032 62.59087341 92.96326477 61.83232056 92.85546875 61.05078125 C92.75172943 60.29690125 92.64799011 59.54302124 92.54110718 58.76629639 C91.9001569 54.11458279 91.25851516 49.46310629 90.58203125 44.81640625 C90.36571045 43.31279541 90.36571045 43.31279541 90.14501953 41.77880859 C89.10812909 36.58041166 86.36992132 33.5323545 82.32421875 30.35546875 C72.60528732 24.9234094 56.65794291 28.5806309 45.88671875 29.60546875 C44.37244471 29.74386266 42.85812109 29.88171506 41.34375 30.01904297 C33.76447402 30.71271761 26.19776882 31.48474552 18.63671875 32.35546875 C10.01425098 33.34472081 1.37496363 33.63704206 -7.296875 33.88916016 C-18.34463658 33.69779752 -18.34463658 33.69779752 -28.36328125 37.23046875 C-29.60066551 41.19321945 -29.47249432 45.14121576 -29.44506836 49.26464844 C-29.4420018 49.95317902 -29.43893524 50.64170959 -29.43577576 51.35110474 C-29.42864619 52.84012783 -29.41926965 54.32914152 -29.40788078 55.81813812 C-29.39040751 58.18176398 -29.38016415 60.54532141 -29.3719635 62.90899658 C-29.34758963 69.62754793 -29.31210638 76.34600733 -29.26733398 83.06445312 C-29.24040681 87.18101646 -29.22345758 91.29752648 -29.21246529 95.41416168 C-29.20629488 96.97533382 -29.1963397 98.53649612 -29.1823864 100.0976181 C-29.03884398 116.30683611 -31.47452617 129.43232564 -43.17578125 141.66796875 C-55.60694836 153.23533875 -68.1566846 155.67635659 -84.66413689 155.6105938 C-87.19094189 155.601379 -89.71702143 155.61181977 -92.24378967 155.62721252 C-99.41845817 155.66705509 -106.59306138 155.66850358 -113.76782227 155.66625977 C-118.17674531 155.66620872 -122.58526814 155.68533282 -126.9940815 155.71559334 C-129.48044336 155.72640945 -131.96604023 155.71430276 -134.45237732 155.70176697 C-135.97338624 155.71066768 -137.4943889 155.72074076 -139.01538086 155.73217773 C-139.70372513 155.72243423 -140.3920694 155.71269073 -141.10127258 155.70265198 C-144.3836088 155.75196402 -146.11872452 156.04922304 -148.78465271 158.0249939 C-151.15836575 161.34126766 -151.03791923 164.70966012 -151.12109375 168.6484375 C-151.15440292 169.48600586 -151.1877121 170.32357422 -151.22203064 171.18652344 C-151.32783664 173.9300085 -151.40774645 176.67363639 -151.48828125 179.41796875 C-151.55822435 181.31754804 -151.63042796 183.21704537 -151.70483398 185.11645508 C-151.81809777 188.00911938 -151.9302351 190.90175848 -152.03556824 193.79472351 C-152.36102294 202.67864409 -152.86321956 211.54634716 -153.42578125 220.41796875 C-153.54493896 222.34322388 -153.54493896 222.34322388 -153.66650391 224.30737305 C-154.05865473 230.59045486 -154.47447271 236.87160034 -154.90234375 243.15234375 C-155.23785845 248.20083777 -155.56934074 253.23424363 -155.67578125 258.29296875 C-155.71316406 259.48019531 -155.75054687 260.66742188 -155.7890625 261.890625 C-155.10158016 267.28326169 -152.32721196 270.30844807 -148.48828125 273.98046875 C-143.66532316 277.12892787 -138.380836 277.42147843 -132.75927734 277.98583984 C-128.90376677 278.37948378 -125.05556806 278.83556172 -121.20581055 279.28149414 C-118.97189695 279.53978683 -116.73768023 279.79547089 -114.50317383 280.04858398 C-103.76542705 281.2709493 -93.06361862 282.71869764 -82.36328125 284.23046875 C-86.07185582 286.2042736 -89.61761779 286.9625516 -93.73828125 287.60546875 C-94.88296875 287.78783081 -94.88296875 287.78783081 -96.05078125 287.97387695 C-98.81981711 288.4054672 -101.5911626 288.81914219 -104.36328125 289.23046875 C-105.51473633 289.40400879 -106.66619141 289.57754883 -107.85253906 289.75634766 C-152.590391 296.41383568 -152.590391 296.41383568 -164.97265625 287.3125 C-174.22352134 279.58063791 -180.43795215 269.72118272 -181.75610352 257.62597656 C-182.01241952 254.12249629 -182.18145111 250.61600603 -182.33010864 247.10647583 C-182.49216291 243.29362577 -182.6948032 239.48290687 -182.89453125 235.671875 C-182.93256363 234.92874557 -182.97059601 234.18561615 -183.00978088 233.41996765 C-183.33727928 227.22013808 -183.91919683 221.07279822 -184.64891052 214.90788269 C-185.23828678 209.76820364 -185.63658249 204.64284267 -185.8984375 199.4765625 C-185.93993927 198.66147217 -185.98144104 197.84638184 -186.02420044 197.0065918 C-186.43542288 188.44386126 -186.65305749 179.88368546 -186.71337891 171.31152344 C-186.73011996 169.5763627 -186.75764031 167.8412757 -186.79541016 166.10644531 C-187.14448306 149.83054162 -183.88534537 139.46721318 -172.59375 127.328125 C-163.52086417 118.59905379 -152.36793421 115.20273681 -140.04443359 114.99682617 C-139.33797195 114.98359818 -138.63151031 114.97037018 -137.90364075 114.95674133 C-136.37974441 114.92833155 -134.85581455 114.90167636 -133.33185959 114.87660789 C-130.08957108 114.82126378 -126.84766968 114.75064191 -123.60566139 114.68102741 C-117.57877491 114.55188821 -111.55190045 114.4294171 -105.52441406 114.33178711 C-101.32195747 114.26313372 -97.1202652 114.17553339 -92.91844559 114.07540321 C-91.31980572 114.0408856 -89.72099688 114.01343705 -88.12211227 113.99321556 C-85.88839228 113.96418186 -83.65644883 113.91101675 -81.42333984 113.85229492 C-80.15348236 113.82866379 -78.88362488 113.80503265 -77.57528687 113.78068542 C-74.33686235 113.45182824 -74.33686235 113.45182824 -71.95317078 111.60969543 C-69.83297894 108.43688568 -69.86446265 106.34614446 -69.86499023 102.54101562 C-69.85947144 101.87695709 -69.85395264 101.21289856 -69.8482666 100.52871704 C-69.83895746 99.08938041 -69.83883258 97.64996141 -69.84686089 96.21061707 C-69.85952866 93.92145062 -69.84816349 91.63348384 -69.83082581 89.34436035 C-69.80410746 85.29814593 -69.79852963 81.25222569 -69.79992676 77.20593262 C-69.8021521 70.75911234 -69.78761917 64.31266122 -69.7443409 57.86598206 C-69.73461958 55.63046297 -69.74316404 53.3955397 -69.7530365 51.16003418 C-69.72792175 34.99076515 -66.20695823 23.22137709 -54.98828125 11.35546875 C-39.42957029 -3.33741176 -19.93862831 -1.16924438 0 0 Z " transform="translate(229.36328125,38.76953125)"/>
<path fill="#37ff9b" d="M0 0 C4.78644892 3.14702838 7.45149515 7.05857845 9.26953125 12.4921875 C9.53695679 15.21652222 9.53695679 15.21652222 9.56005859 18.20263672 C9.5728183 19.32926727 9.585578 20.45589783 9.59872437 21.6166687 C9.60095001 22.83113678 9.60317566 24.04560486 9.60546875 25.296875 C9.61545395 27.2020842 9.61545395 27.2020842 9.62564087 29.14578247 C9.63577233 31.84423757 9.64132322 34.54229037 9.64013672 37.24072266 C9.63997621 39.95974935 9.65352678 42.67808771 9.68115234 45.39697266 C9.90967022 69.64657769 7.46051925 91.62960223 -0.73046875 114.4921875 C-1.07416504 115.48871338 -1.07416504 115.48871338 -1.42480469 116.50537109 C-9.64779063 140.16584952 -24.75255796 158.93755733 -47.35595703 170.00488281 C-75.54068364 183.3886492 -112.52961883 191.20037596 -142.98144531 180.71728516 C-144.90662105 179.99882883 -146.819809 179.24840206 -148.73046875 178.4921875 C-148.73046875 178.1621875 -148.73046875 177.8321875 -148.73046875 177.4921875 C-147.39822266 177.36263672 -147.39822266 177.36263672 -146.0390625 177.23046875 C-129.52701153 175.41430976 -112.80673904 172.68544064 -97.73046875 165.4921875 C-96.37225955 164.91731121 -95.01134383 164.34880625 -93.6484375 163.78515625 C-72.60498249 154.98011352 -51.29919905 143.48074311 -41.94921875 121.57421875 C-33.43907443 100.05337302 -31.01856856 78.49733592 -29.73046875 55.4921875 C-30.72304688 56.01167969 -31.715625 56.53117187 -32.73828125 57.06640625 C-41.53965681 61.61063624 -50.27370793 65.46929203 -59.73046875 68.4921875 C-60.3862793 68.71003906 -61.04208984 68.92789063 -61.71777344 69.15234375 C-63.82042214 69.8475984 -65.92989973 70.51683569 -68.04296875 71.1796875 C-69.29722656 71.57542969 -70.55148437 71.97117187 -71.84375 72.37890625 C-87.0518536 76.24301289 -103.03607105 75.86706227 -118.60546875 76.0546875 C-121.87328282 76.0990108 -125.14101378 76.14593581 -128.40872192 76.19749451 C-130.42222641 76.22879368 -132.43580324 76.25586935 -134.44943237 76.27772522 C-153.44292332 76.55462448 -171.30330621 80.32614057 -185.73046875 93.4921875 C-199.9855455 108.51642306 -203.1218052 127.63789265 -204.73046875 147.4921875 C-205.39046875 147.4921875 -206.05046875 147.4921875 -206.73046875 147.4921875 C-213.4005769 132.04985531 -213.49250459 109.10957758 -207.92578125 93.32421875 C-207.53132812 92.38964844 -207.136875 91.45507812 -206.73046875 90.4921875 C-206.35664063 89.58855469 -205.9828125 88.68492187 -205.59765625 87.75390625 C-199.27658493 73.96057512 -188.59766802 64.08941278 -175.73046875 56.4921875 C-174.46009766 55.70908203 -174.46009766 55.70908203 -173.1640625 54.91015625 C-156.01828162 44.91991795 -135.2644924 43.01986956 -116.01416016 40.58544922 C-102.83058904 38.89854726 -90.32038196 36.81752371 -77.73046875 32.4921875 C-76.86357422 32.19715332 -75.99667969 31.90211914 -75.10351562 31.59814453 C-73.11868381 30.88509865 -71.17400211 30.12285319 -69.23046875 29.3046875 C-68.19720459 28.8720459 -68.19720459 28.8720459 -67.14306641 28.43066406 C-52.15744987 21.93112406 -39.05878479 12.46520189 -26.1953125 2.53515625 C-17.26274045 -4.32706265 -10.1003524 -5.49235753 0 0 Z " transform="translate(365.73046875,139.5078125)"/> -->
<path fill="#1a60e4" d="M0 0 C0.556875 0.268125 1.11375 0.53625 1.6875 0.8125 C0.90375 1.26625 0.12 1.72 -0.6875 2.1875 C-3.34948031 3.69678742 -3.34948031 3.69678742 -5.3125 5.8125 C-5.68081081 7.74507855 -5.68081081 7.74507855 -5.7265625 9.9453125 C-5.76523437 10.75097656 -5.80390625 11.55664062 -5.84375 12.38671875 C-5.8746875 13.22847656 -5.905625 14.07023437 -5.9375 14.9375 C-5.97617187 15.78699219 -6.01484375 16.63648438 -6.0546875 17.51171875 C-6.14906494 19.61161684 -6.23187586 21.71202891 -6.3125 23.8125 C-6.6425 23.8125 -6.9725 23.8125 -7.3125 23.8125 C-7.44780844 20.74851549 -7.5467407 17.69052874 -7.625 14.625 C-7.66689453 13.76068359 -7.70878906 12.89636719 -7.75195312 12.00585938 C-7.83994126 7.4128786 -7.80277658 5.45760076 -4.9375 1.6875 C-2.3125 -0.1875 -2.3125 -0.1875 0 0 Z " transform="translate(354.3125,339.1875)"/>
<path fill="#1a60e4" d="M0 0 C-1.45537568 0.83848804 -2.91440373 1.67063934 -4.375 2.5 C-5.59316406 3.19609375 -5.59316406 3.19609375 -6.8359375 3.90625 C-9 5 -9 5 -11 5 C-11 4.34 -11 3.68 -11 3 C-11.99 2.67 -12.98 2.34 -14 2 C-12.23225581 1.46877637 -10.46065917 0.95035927 -8.6875 0.4375 C-7.70136719 0.14746094 -6.71523438 -0.14257812 -5.69921875 -0.44140625 C-3 -1 -3 -1 0 0 Z " transform="translate(268,228)"/>
<path fill="#1a60e4" d="M0 0 C-0.33 0.66 -0.66 1.32 -1 2 C-3.64 2 -6.28 2 -9 2 C-9 1.34 -9 0.68 -9 0 C-5.62182575 -0.84454356 -3.32534757 -1.10844919 0 0 Z " transform="translate(402,173)"/>
</svg>
